<svg width="230" height="182" viewBox="0 0 230 182" fill="none" xmlns="http://www.w3.org/2000/svg">
<path d="M159.728 149.837C165.645 157.479 166.371 166.826 161.349 170.714C156.327 174.603 147.459 171.56 141.542 163.918C135.625 156.276 134.899 146.929 139.921 143.041C144.943 139.152 153.811 142.195 159.728 149.837Z" fill="url(#paint0_linear_320_139)"/>
<path d="M89.0793 54.3768L102.766 34.6439C107.251 28.177 107.114 19.5702 102.424 13.25C99.9899 9.96993 96.5312 7.59558 92.5956 6.503L80.5928 3.17091C77.4977 2.31167 74.3307 1.73619 71.1312 1.45163L67.3736 1.11743C54.4757 -0.0296957 41.7155 4.48158 32.4047 13.4804C29.9024 15.8989 27.6915 18.6017 25.8172 21.5338L16.3956 36.2726C15.1256 38.2592 14.3307 40.5119 14.0727 42.8556C13.4183 48.7981 16.2761 54.5794 21.3949 57.6682L35.0813 65.927C53.3089 76.9262 76.9462 71.8702 89.0793 54.3768Z" fill="url(#paint1_linear_320_139)"/>
<path d="M50.4965 79.3889L25.4269 64.9812C16.6328 59.9272 5.40447 63.9527 1.82471 73.443C0.708413 76.4024 0.46842 79.6207 1.13344 82.7129L5.20893 101.663C5.94247 105.074 6.9518 108.42 8.22695 111.667L11.3754 119.685C16.4057 132.496 26.8913 142.393 39.9711 146.676C43.9382 147.975 48.0632 148.73 52.2333 148.919L71.1168 149.779C73.2807 149.878 75.4324 149.405 77.356 148.409C83.1831 145.392 85.6324 138.344 82.9322 132.363L67.4596 98.0926C63.9102 90.231 57.9751 83.6869 50.4965 79.3889Z" fill="url(#paint2_linear_320_139)"/>
<path d="M78.369 105.03L84.654 124.037C88.3613 135.249 100.195 141.598 111.587 138.488C115.471 137.428 118.994 135.332 121.778 132.423L136.621 116.922C139.199 114.229 141.565 111.341 143.697 108.283L150.159 99.0171C158.476 87.0884 160.992 72.0527 157.011 58.066C155.741 53.6037 153.836 49.3472 151.354 45.4269L141.168 29.3339C139.662 26.9552 137.528 25.0392 135.001 23.798C128.71 20.7073 121.122 22.2998 116.603 27.6593L86.3767 63.5141C76.6758 75.0214 73.6439 90.7397 78.369 105.03Z" fill="url(#paint3_linear_320_139)"/>
<path d="M140.372 18.3972L126.095 8.54712L145.314 20.4315C158.607 28.6512 169.118 40.6824 175.478 54.959C184.42 75.032 184.46 97.9495 175.588 118.054L171.068 128.297C162.403 147.933 146.468 163.449 126.609 171.588L116.854 175.586C108.639 178.953 99.9018 180.867 91.0316 181.244C73.8289 181.974 56.8812 176.892 42.9186 166.817L33.8724 160.289C29.0346 156.798 24.5874 152.796 20.6076 148.351L11.0946 137.728L11.8096 138.371C32.8259 157.274 62.0177 164.181 89.2769 156.702L95.3427 155.037L111.921 148.254C128.616 141.423 142.631 129.339 151.845 113.831L158.72 102.26C164.493 92.5432 167.54 81.4495 167.54 70.1467C167.54 49.48 157.383 30.1332 140.372 18.3972Z" fill="url(#paint4_linear_320_139)"/>
<path d="M165.234 145.724C180.148 126.234 206.128 118.912 229.024 127.747L223.06 134.98C208.035 153.201 183.034 159.759 161 151.257L165.234 145.724Z" fill="url(#paint5_linear_320_139)"/>
<defs>
<linearGradient id="paint0_linear_320_139" x1="9.99999" y1="-30" x2="144" y2="186" gradientUnits="userSpaceOnUse">
<stop offset="0.21875" stop-color="#EEAF61"/>
<stop offset="0.566149" stop-color="#EE5D6C"/>
<stop offset="0.776264" stop-color="#6A0D83"/>
<stop offset="1" stop-color="#200363"/>
</linearGradient>
<linearGradient id="paint1_linear_320_139" x1="9.99999" y1="-30" x2="144" y2="186" gradientUnits="userSpaceOnUse">
<stop offset="0.21875" stop-color="#EEAF61"/>
<stop offset="0.566149" stop-color="#EE5D6C"/>
<stop offset="0.776264" stop-color="#6A0D83"/>
<stop offset="1" stop-color="#200363"/>
</linearGradient>
<linearGradient id="paint2_linear_320_139" x1="9.99999" y1="-30" x2="144" y2="186" gradientUnits="userSpaceOnUse">
<stop offset="0.21875" stop-color="#EEAF61"/>
<stop offset="0.566149" stop-color="#EE5D6C"/>
<stop offset="0.776264" stop-color="#6A0D83"/>
<stop offset="1" stop-color="#200363"/>
</linearGradient>
<linearGradient id="paint3_linear_320_139" x1="9.99999" y1="-30" x2="144" y2="186" gradientUnits="userSpaceOnUse">
<stop offset="0.21875" stop-color="#EEAF61"/>
<stop offset="0.566149" stop-color="#EE5D6C"/>
<stop offset="0.776264" stop-color="#6A0D83"/>
<stop offset="1" stop-color="#200363"/>
</linearGradient>
<linearGradient id="paint4_linear_320_139" x1="9.99999" y1="-30" x2="144" y2="186" gradientUnits="userSpaceOnUse">
<stop offset="0.21875" stop-color="#EEAF61"/>
<stop offset="0.566149" stop-color="#EE5D6C"/>
<stop offset="0.776264" stop-color="#6A0D83"/>
<stop offset="1" stop-color="#200363"/>
</linearGradient>
<linearGradient id="paint5_linear_320_139" x1="9.99999" y1="-30" x2="144" y2="186" gradientUnits="userSpaceOnUse">
<stop offset="0.21875" stop-color="#EEAF61"/>
<stop offset="0.566149" stop-color="#EE5D6C"/>
<stop offset="0.776264" stop-color="#6A0D83"/>
<stop offset="1" stop-color="#200363"/>
</linearGradient>
</defs>
</svg>
